<?xml version="1.0" encoding="UTF-8"?>
        <svg width="800" height="900" xmlns="http://www.w3.org/2000/svg">
        <rect width="100%" height="100%" fill="white"/>
        <text x="400" y="30" font-family="Arial" font-size="16" font-weight="bold" text-anchor="middle">Diagrama de jerarquía de operaciones</text><rect x="360" y="80" width="80" height="40" fill="none" stroke="black" stroke-width="1"/>
<text x="400" y="105" font-family="Arial" font-size="12" text-anchor="middle">+</text>
<text x="400" y="115" font-family="Arial" font-size="10" text-anchor="middle">= 9.82</text>
<line x1="400" y1="120" x2="280" y2="130" stroke="black" stroke-width="1"/>
<rect x="255" y="140" width="50" height="20" fill="none" stroke="black" stroke-width="1"/>
<text x="280" y="154" font-family="Arial" font-size="10" text-anchor="middle">4.5</text>
<line x1="400" y1="120" x2="520" y2="130" stroke="black" stroke-width="1"/>
<rect x="495" y="140" width="50" height="20" fill="none" stroke="black" stroke-width="1"/>
<text x="520" y="154" font-family="Arial" font-size="10" text-anchor="middle">5.32</text>
<rect x="360" y="180" width="80" height="40" fill="none" stroke="black" stroke-width="1"/>
<text x="400" y="205" font-family="Arial" font-size="12" text-anchor="middle">-</text>
<text x="400" y="215" font-family="Arial" font-size="10" text-anchor="middle">= 50.30</text>
<line x1="400" y1="220" x2="280" y2="230" stroke="black" stroke-width="1"/>
<rect x="255" y="240" width="50" height="20" fill="none" stroke="black" stroke-width="1"/>
<text x="280" y="254" font-family="Arial" font-size="10" text-anchor="middle">84.0</text>
<line x1="400" y1="220" x2="520" y2="230" stroke="black" stroke-width="1"/>
<rect x="495" y="240" width="50" height="20" fill="none" stroke="black" stroke-width="1"/>
<text x="520" y="254" font-family="Arial" font-size="10" text-anchor="middle">33.7</text>
<rect x="360" y="280" width="80" height="40" fill="none" stroke="black" stroke-width="1"/>
<text x="400" y="305" font-family="Arial" font-size="12" text-anchor="middle">×</text>
<text x="400" y="315" font-family="Arial" font-size="10" text-anchor="middle">= 35.00</text>
<line x1="400" y1="320" x2="280" y2="330" stroke="black" stroke-width="1"/>
<rect x="255" y="340" width="50" height="20" fill="none" stroke="black" stroke-width="1"/>
<text x="280" y="354" font-family="Arial" font-size="10" text-anchor="middle">5.0</text>
<line x1="400" y1="320" x2="520" y2="330" stroke="black" stroke-width="1"/>
<rect x="495" y="340" width="50" height="20" fill="none" stroke="black" stroke-width="1"/>
<text x="520" y="354" font-family="Arial" font-size="10" text-anchor="middle">7.0</text>
<rect x="360" y="380" width="80" height="40" fill="none" stroke="black" stroke-width="1"/>
<text x="400" y="405" font-family="Arial" font-size="12" text-anchor="middle">÷</text>
<text x="400" y="415" font-family="Arial" font-size="10" text-anchor="middle">= 5.00</text>
<line x1="400" y1="420" x2="280" y2="430" stroke="black" stroke-width="1"/>
<rect x="255" y="440" width="50" height="20" fill="none" stroke="black" stroke-width="1"/>
<text x="280" y="454" font-family="Arial" font-size="10" text-anchor="middle">45.0</text>
<line x1="400" y1="420" x2="520" y2="430" stroke="black" stroke-width="1"/>
<rect x="495" y="440" width="50" height="20" fill="none" stroke="black" stroke-width="1"/>
<text x="520" y="454" font-family="Arial" font-size="10" text-anchor="middle">9.0</text>
<rect x="360" y="480" width="80" height="40" fill="none" stroke="black" stroke-width="1"/>
<text x="400" y="505" font-family="Arial" font-size="12" text-anchor="middle">+</text>
<text x="400" y="515" font-family="Arial" font-size="10" text-anchor="middle">= 13.20</text>
<line x1="400" y1="520" x2="280" y2="530" stroke="black" stroke-width="1"/>
<rect x="255" y="540" width="50" height="20" fill="none" stroke="black" stroke-width="1"/>
<text x="280" y="554" font-family="Arial" font-size="10" text-anchor="middle">5.4</text>
<line x1="400" y1="520" x2="520" y2="530" stroke="black" stroke-width="1"/>
<rect x="495" y="540" width="50" height="20" fill="none" stroke="black" stroke-width="1"/>
<text x="520" y="554" font-family="Arial" font-size="10" text-anchor="middle">7.8</text>
<rect x="360" y="580" width="80" height="40" fill="none" stroke="black" stroke-width="1"/>
<text x="400" y="605" font-family="Arial" font-size="12" text-anchor="middle">×</text>
<text x="400" y="615" font-family="Arial" font-size="10" text-anchor="middle">= 33.54</text>
<line x1="400" y1="620" x2="280" y2="630" stroke="black" stroke-width="1"/>
<rect x="255" y="640" width="50" height="20" fill="none" stroke="black" stroke-width="1"/>
<text x="280" y="654" font-family="Arial" font-size="10" text-anchor="middle">7.8</text>
<line x1="400" y1="620" x2="520" y2="630" stroke="black" stroke-width="1"/>
<rect x="495" y="640" width="50" height="20" fill="none" stroke="black" stroke-width="1"/>
<text x="520" y="654" font-family="Arial" font-size="10" text-anchor="middle">4.3</text>
<rect x="360" y="680" width="80" height="40" fill="none" stroke="black" stroke-width="1"/>
<text x="400" y="705" font-family="Arial" font-size="12" text-anchor="middle">×</text>
<text x="400" y="715" font-family="Arial" font-size="10" text-anchor="middle">= 33.54</text>
<line x1="400" y1="720" x2="280" y2="730" stroke="black" stroke-width="1"/>
<rect x="255" y="740" width="50" height="20" fill="none" stroke="black" stroke-width="1"/>
<text x="280" y="754" font-family="Arial" font-size="10" text-anchor="middle">7.8</text>
<line x1="400" y1="720" x2="520" y2="730" stroke="black" stroke-width="1"/>
<rect x="495" y="740" width="50" height="20" fill="none" stroke="black" stroke-width="1"/>
<text x="520" y="754" font-family="Arial" font-size="10" text-anchor="middle">4.3</text>
<rect x="360" y="780" width="80" height="40" fill="none" stroke="black" stroke-width="1"/>
<text x="400" y="805" font-family="Arial" font-size="12" text-anchor="middle">+</text>
<text x="400" y="815" font-family="Arial" font-size="10" text-anchor="middle">= 38.94</text>
<line x1="400" y1="820" x2="280" y2="830" stroke="black" stroke-width="1"/>
<rect x="255" y="840" width="50" height="20" fill="none" stroke="black" stroke-width="1"/>
<text x="280" y="854" font-family="Arial" font-size="10" text-anchor="middle">5.4</text>
<line x1="400" y1="820" x2="520" y2="830" stroke="black" stroke-width="1"/>
<rect x="495" y="840" width="50" height="20" fill="none" stroke="black" stroke-width="1"/>
<text x="520" y="854" font-family="Arial" font-size="10" text-anchor="middle">33.54</text>
<text x="445" y="790" font-family="Arial" font-size="16" fill="black">(compleja)</text>
</svg>